<svg xmlns="http://www.w3.org/2000/svg" xmlns:svg="http://www.w3.org/2000/svg" id="svg4" width="72" height="72" version="1.1" viewBox="0 0 72 72"><metadata id="metadata10"/><path id="path2" d="m 36.003976,42.3 a 6.3,6.3 0 0 1 -6.3,-6.3 6.3,6.3 0 0 1 6.3,-6.3 6.3,6.3 0 0 1 6.3,6.3 6.3,6.3 0 0 1 -6.3,6.3 m 13.374,-4.554 c 0.072,-0.576 0.126,-1.152 0.126,-1.746 0,-0.594 -0.054,-1.188 -0.126,-1.8 l 3.798,-2.934 c 0.342,-0.27 0.432,-0.756 0.216,-1.152 l -3.6,-6.228 c -0.216,-0.396 -0.702,-0.558 -1.098,-0.396 l -4.482,1.8 c -0.936,-0.702 -1.908,-1.314 -3.042,-1.764 l -0.666,-4.77 c -0.072,-0.432 -0.45,-0.756 -0.9,-0.756 h -7.2 c -0.45,0 -0.828,0.324 -0.9,0.756 l -0.666,4.77 c -1.134,0.45 -2.106,1.062 -3.042,1.764 l -4.482,-1.8 c -0.396,-0.162 -0.882,0 -1.098,0.396 l -3.6,6.228 c -0.234,0.396 -0.126,0.882 0.216,1.152 l 3.798,2.934 c -0.072,0.612 -0.126,1.206 -0.126,1.8 0,0.594 0.054,1.17 0.126,1.746 l -3.798,2.988 c -0.342,0.27 -0.45,0.756 -0.216,1.152 l 3.6,6.228 c 0.216,0.396 0.702,0.54 1.098,0.396 l 4.482,-1.818 c 0.936,0.72 1.908,1.332 3.042,1.782 l 0.666,4.77 c 0.072,0.432 0.45,0.756 0.9,0.756 h 7.2 c 0.45,0 0.828,-0.324 0.9,-0.756 l 0.666,-4.77 c 1.134,-0.468 2.106,-1.062 3.042,-1.782 l 4.482,1.818 c 0.396,0.144 0.882,0 1.098,-0.396 l 3.6,-6.228 c 0.216,-0.396 0.126,-0.882 -0.216,-1.152 z" style="stroke-width:1.79999995;fill:#000;fill-opacity:1;opacity:.99"/></svg>